<svg version="1.2" xmlns="http://www.w3.org/2000/svg" viewBox="0 0 124 1064" width="124" height="1064"><defs><clipPath clipPathUnits="userSpaceOnUse" id="cp1"><path d="m62 7c34.23 0 62 27.77 62 62v925.11c0 34.23-27.77 62-62 62-34.23 0-62-27.77-62-62v-925.11c0-34.23 27.77-62 62-62z"/></clipPath></defs><style>.a{fill:#fff;stroke:#d5d5d5;stroke-miterlimit:100;stroke-width:12}</style><g clip-path="url(#cp1)"><path fill-rule="evenodd" class="a" d="m62 7c34.2 0 62 27.8 62 62v925.1c0 34.2-27.8 62-62 62-34.2 0-62-27.8-62-62v-925.1c0-34.2 27.8-62 62-62z"/><path fill-rule="evenodd" class="a" d="m131.1 18.8l8.1 8.9-146.3 133.5-8.1-8.9z"/><path fill-rule="evenodd" class="a" d="m131.1 128.8l8.1 8.9-146.3 133.5-8.1-8.9z"/><path fill-rule="evenodd" class="a" d="m131.1 237.8l8.1 8.9-146.3 133.5-8.1-8.9z"/><path fill-rule="evenodd" class="a" d="m131.1 346.8l8.1 8.9-146.3 133.5-8.1-8.9z"/><path fill-rule="evenodd" class="a" d="m131.1 455.8l8.1 8.9-146.3 133.5-8.1-8.9z"/><path fill-rule="evenodd" class="a" d="m131.1 564.8l8.1 8.9-146.3 133.5-8.1-8.9z"/><path fill-rule="evenodd" class="a" d="m131.1 673.8l8.1 8.9-146.3 133.5-8.1-8.9z"/><path fill-rule="evenodd" class="a" d="m131.1 782.8l8.1 8.9-146.3 133.5-8.1-8.9z"/><path fill-rule="evenodd" class="a" d="m131.1 891.8l8.1 8.9-146.3 133.5-8.1-8.9z"/></g></svg>